{"title":"Game of Thrones S05E09 1080i HDTV MPEG2 DD5.1-CtrlHD","uid":12000005,"size":5617605252,"categoryP":"video","categoryS":"hd___tv_shows","magnet":"?xt=urn:btih:74ffeaccc4ff013a5c1bb15894530b2717f0db25&amp;dn=Game+of+Thrones+S05E09+1080i+HDTV+MPEG2+DD5.1-CtrlHD&amp;tr=udp%3A%2F%2Ftracker.openbittorrent.com%3A80&amp;tr=udp%3A%2F%2Fopen.demonii.com%3A1337&amp;tr=udp%3A%2F%2Ftracker.coppersurfer.tk%3A6969&amp;tr=udp%3A%2F%2Fexodus.desync.com%3A6969","seeders":3,"leechers":0,"uploader":"Road2HD","files":1,"time":1433757476,"description":"mediainfo:\n\nGeneral\nID : 1 (0x1)\nComplete name : Game of Thrones S05E09 1080i HDTV MPEG2 DD5.1-CtrlHD.ts\nFormat : MPEG-TS\nFile size : 5.23 GiB\nDuration : 54mn 43s\nOverall bit rate mode : Variable\nOverall bit rate : 13.7 Mbps\n\nVideo\nID : 33 (0x21)\nMenu ID : 1 (0x1)\nFormat : MPEG Video\nFormat version : Version 2\nFormat profile : Main@High\nFormat settings, BVOP : Yes\nFormat settings, Matrix : Default\nFormat settings, GOP : Variable\nCodec ID : 2\nDuration : 54mn 43s\nBit rate mode : Variable\nBit rate : 12.6 Mbps\nMaximum bit rate : 38.8 Mbps\nWidth : 1 920 pixels\nHeight : 1 080 pixels\nDisplay aspect ratio : 16:9\nFrame rate : 29.970 fps\nColor space : YUV\nChroma subsampling : 4:2:0\nBit depth : 8 bits\nCompression mode : Lossy\nBits/(Pixel*Frame) : 0.203\nStream size : 4.82 GiB (92%)\n\nAudio\nID : 36 (0x24)\nMenu ID : 1 (0x1)\nFormat : AC-3\nFormat/Info : Audio Coding 3\nMode extension : CM (complete main)\nFormat settings, Endianness : Big\nCodec ID : 129\nDuration : 54mn 43s\nBit rate mode : Constant\nBit rate : 384 Kbps\nChannel(s) : 2 channels\nChannel positions : Front: L R\nSampling rate : 48.0 KHz\nBit depth : 16 bits\nCompression mode : Lossy\nStream size : 150 MiB (3%)\nLanguage : English\n\nText #1\nID : 33 (0x21)-1\nMenu ID : 1 (0x1)\nFormat : EIA-708\nMuxing mode : A/53 / DTVCC Transport\nMuxing mode, more info : Muxed in Video #1\nDuration : 54mn 43s\nBit rate mode : Constant\nStream size : 0.00 Byte (0%)\n\nText #2\nID : 33 (0x21)-2\nMenu ID : 1 (0x1)\nFormat : EIA-708\nMuxing mode : A/53 / DTVCC Transport\nMuxing mode, more info : Muxed in Video #1\nDuration : 54mn 43s\nBit rate mode : Constant\nStream size : 0.00 Byte (0%)","torrent":{"xt":"urn:btih:74ffeaccc4ff013a5c1bb15894530b2717f0db25","amp;dn":"Game+of+Thrones+S05E09+1080i+HDTV+MPEG2+DD5.1-CtrlHD","amp;tr":["udp%3A%2F%2Ftracker.openbittorrent.com%3A80","udp%3A%2F%2Fopen.demonii.com%3A1337","udp%3A%2F%2Ftracker.coppersurfer.tk%3A6969","udp%3A%2F%2Fexodus.desync.com%3A6969"],"infoHash":"74ffeaccc4ff013a5c1bb15894530b2717f0db25","infoHashBuffer":{"type":"Buffer","data":[116,255,234,204,196,255,1,58,92,27,177,88,148,83,11,39,23,240,219,37]},"announce":[],"urlList":[]}}